<?xml version="1.0" encoding="utf-8"?>
<!DOCTYPE svg PUBLIC "-//W3C//DTD SVG 20010904//EN" "http://www.w3.org/TR/2001/REC-SVG-20010904/DTD/svg10.dtd">
<svg version="1.0" xmlns="http://www.w3.org/2000/svg" width="2439px" height="550px" viewBox="0 0 2439 550" preserveAspectRatio="xMidYMid meet">
 <g fill="#ffffff">
  <path d="M358 510 l0 -9 35.5 0 35.5 0 0 9 0 9 -35.5 0 -35.5 0 0 -9z"/>
  <path d="M341 476.1 c0 -7.2 0.3 -9 1.6 -9.5 0.9 -0.3 24.5 -0.6 52.5 -0.6 l50.9 0 0 8.8 0 8.9 -36.2 0.6 c-19.9 0.4 -43.5 0.7 -52.5 0.7 l-16.3 0 0 -8.9z"/>
  <path d="M1572.9 457.7 c-7 -1.6 -10.6 -3.9 -11.6 -7.5 -0.5 -1.5 -0.8 -8.1 -0.8 -14.7 0 -9.9 0.3 -12.6 1.8 -14.8 1.7 -2.7 1.9 -2.7 9.6 -2.1 10.3 0.9 15.9 -1.4 19.2 -7.7 3.4 -6.8 3.8 -17.8 3.8 -111.1 0.1 -95.6 -0.5 -87.7 7.4 -89.9 5.4 -1.5 26.9 -1.6 32.2 -0.1 2.2 0.6 4.9 1.8 6 2.6 2 1.4 2 3.2 2.3 86.3 0.4 108.4 -0.2 117.3 -8.3 133.8 -5.7 11.8 -14.9 19.7 -27.5 23.6 -8.2 2.6 -26.1 3.4 -34.1 1.6z"/>
  <path d="M542.1 454.5 c-6.2 -5.3 -6.3 -12.6 -0.5 -30.1 1.8 -5.6 10.5 -28.1 19.3 -50 19.6 -49.3 102.9 -254.8 106.5 -262.7 6.4 -14.6 15.8 -20.8 24.5 -16.3 4.8 2.5 6.6 6.3 6.5 13.6 -0.2 10.6 -3.4 19 -56.4 150 -55.6 137.3 -72 177.1 -75.9 184.5 -6.7 12.6 -16.6 17.1 -24 11z"/>
  <path d="M341.5 449 c-0.5 -0.8 -1.1 -4.9 -1.3 -9.2 l-0.5 -7.8 14.9 0 c8.2 0 32.1 -0.3 53.2 -0.7 l38.2 -0.6 0 9.1 0 9.2 -39.2 0 c-21.6 0 -45 0.3 -51.9 0.7 -10 0.5 -12.8 0.3 -13.4 -0.7z"/>
  <path d="M171.6 420.5 c-7.2 -2.6 -14.4 -8.6 -41.9 -35.3 -40.9 -39.8 -82.6 -82.9 -86.6 -89.7 -2.6 -4.3 -3.6 -7.2 -3.9 -11.6 -0.5 -6.6 0.6 -10.1 5.2 -16.9 7.4 -11 108.8 -111.8 120.1 -119.5 2.8 -1.9 7.1 -3.9 9.7 -4.5 4.2 -1.1 5.3 -1 8.5 0.7 2.1 1.1 4.5 3.5 5.6 5.6 1.7 3.3 1.8 4.3 0.7 8.5 -0.6 2.6 -2.3 6.7 -3.7 9.2 -1.5 2.5 -21.2 23.2 -45.2 47.5 -46 46.4 -47.5 48.2 -50.2 61.1 -1 4.8 -1 7.4 -0.1 12 2.5 12.4 4.3 14.7 36.6 47.4 58 58.7 61.5 62.7 63.1 72.1 0.9 4.9 -1.5 10.3 -5.7 12.9 -3.8 2.3 -6.8 2.5 -12.2 0.5z"/>
  <path d="M729.3 420.6 c-3.9 -1.8 -7.3 -7 -7.3 -11.2 0 -1.7 1.4 -5.9 3.1 -9.4 2.7 -5.3 9.6 -12.8 45.3 -49.3 23.2 -23.6 43.6 -45.2 45.4 -48.1 8.8 -13.7 8.2 -29.6 -1.5 -43.9 -1.5 -2.3 -21 -22.6 -43.3 -45.2 -22.3 -22.5 -41.8 -42.9 -43.3 -45.2 -5.9 -8.6 -7 -15.1 -3.4 -20.4 4.7 -7 13.1 -7.3 23.3 -0.8 2.7 1.8 30.8 29.1 62.5 60.8 64.6 64.6 63.5 63.3 62.7 75.4 -0.3 5.1 -1.1 7.5 -3.8 11.8 -3.5 5.6 -79.5 82.8 -105.8 107.5 -18.2 17.1 -26.3 21.4 -33.9 18z"/>
  <path d="M322.7 412.9 c-0.4 -1.3 -0.7 -6.2 -0.7 -10.9 0 -20.9 -7.8 -51.7 -18.1 -72.1 -3.7 -7.4 -20.4 -32.4 -32.1 -48 -19.9 -26.7 -28.2 -43.6 -34.4 -70.4 -2.7 -11.6 -2.7 -47.4 0 -59 4.4 -19 11.4 -35.3 22.2 -51.7 8.4 -12.7 26.9 -31.5 40.2 -40.8 19.4 -13.7 42.4 -23.2 65.4 -27.1 16.1 -2.8 43.8 -2.3 58.9 1 29.2 6.3 55.5 20.4 77.4 41.3 16.7 15.9 24.9 27.1 34 46.1 9.3 19.4 13.5 38.3 13.5 60.7 0 21.2 -3.8 39.7 -12.3 59 -5.9 13.6 -10.8 21.6 -28.1 45.4 -25.4 35.1 -26.5 37 -33.5 54.4 -7.5 18.5 -12.1 42.7 -12.1 63.7 l0 9.5 -45.2 0 c-24.9 0 -56.4 0.3 -69.9 0.7 l-24.6 0.6 -0.6 -2.4z m122.7 -26.1 c1.3 -19.7 6.7 -40.5 15.6 -59.4 4.9 -10.5 18.3 -32.6 27.6 -45.4 17.1 -23.6 21 -29.2 25.3 -36.5 12.4 -21 18 -43.5 16.8 -68 -1.7 -35.1 -15.5 -64.2 -42.3 -89.2 -13.3 -12.4 -19.1 -16.6 -32.5 -23.7 -21.3 -11.2 -41.2 -16 -64.9 -15.9 -22.8 0.2 -43.3 5.4 -63 16 -25.7 13.8 -50.2 38.6 -61.9 62.7 -17.5 36 -17.3 75.3 0.4 111.1 4.1 8.2 10.5 17.9 25.4 38 17.1 23.1 21.2 29.4 28.4 43.5 4.7 9.1 9.7 19.9 11.2 24 3.9 11 7.3 26.8 8.7 40.8 l1.2 12.2 51.6 0 51.7 0 0.7 -10.2z"/>
  <path d="M383.1 286.6 c-0.6 -2.5 -1.1 -5.7 -1.1 -7.3 0 -2.7 -0.3 -2.9 -8 -4.3 l-8.1 -1.6 -2.3 4.1 c-1.3 2.2 -3.3 4.8 -4.4 5.8 -1.9 1.7 -2.2 1.7 -7.8 -0.6 l-5.9 -2.3 0 -4.5 c0 -2.4 0.4 -5.7 0.8 -7.4 0.6 -2.8 0.3 -3.2 -5.8 -7.2 l-6.4 -4.2 -5.2 3.4 c-2.8 1.9 -5.6 3.5 -6.3 3.5 -0.6 0 -3.4 -2.2 -6 -4.9 l-4.9 -5 2.6 -4.4 c1.4 -2.4 3.3 -4.9 4.1 -5.6 1.3 -1.1 0.8 -2.2 -3.1 -8 l-4.6 -6.8 -5.6 1.3 c-8.6 2.1 -8.5 2.1 -11.5 -5.3 l-2.6 -6.8 2.7 -2.3 c1.6 -1.3 4.2 -3 5.8 -3.9 1.7 -0.8 3.1 -1.6 3.2 -1.7 0.2 -0.2 -0.4 -3.4 -1.2 -7.2 -0.8 -3.8 -1.5 -7.2 -1.5 -7.5 0 -0.4 -2.1 -1 -4.7 -1.4 -9.2 -1.4 -9.3 -1.5 -9.3 -9.9 l0 -7.4 5 -1.1 c2.8 -0.6 5.9 -1.1 6.9 -1.1 1.4 0 2 -1.4 2.9 -6.5 0.7 -3.5 1.5 -7.1 1.8 -7.8 0.3 -0.9 -1 -2.3 -3.8 -4 -7.7 -4.5 -8 -5.2 -5.1 -12.6 l2.6 -6.3 5.1 0.5 c2.8 0.4 6 0.9 7.2 1.2 1.6 0.5 2.8 -0.4 6 -5.2 2.1 -3.2 4 -6.1 4.2 -6.5 0.2 -0.4 -1.3 -3.1 -3.2 -6 -2 -2.9 -3.6 -5.7 -3.6 -6.3 0 -0.6 2.2 -3.2 4.9 -5.9 l4.8 -4.8 3.9 2.1 c2.2 1.1 5 2.9 6.3 4 l2.5 1.9 4.5 -3.4 c2.5 -1.8 5.4 -3.9 6.4 -4.6 1.5 -1.1 1.6 -1.9 0.7 -4.8 -0.5 -1.9 -1 -5.1 -1 -7.1 0 -3.4 0.2 -3.6 6.3 -6.2 l6.2 -2.6 2.6 3 c1.4 1.6 3.2 4.2 4 5.7 0.7 1.5 1.4 2.9 1.5 3 0.2 0.2 2.9 -0.2 6.1 -0.8 3.2 -0.6 6.8 -1.4 8.1 -1.6 1.7 -0.3 2.2 -1.1 2.2 -3.7 0 -1.7 0.5 -4.9 1.1 -7 l1 -3.7 7.3 0 c7.4 0 7.4 0 8.5 3.1 0.6 1.8 1.1 4.4 1.1 5.9 0 3.8 1.9 5.7 6.5 6.3 2.2 0.3 5.4 0.8 7.1 1.2 2.7 0.6 3.2 0.4 4.3 -2.2 0.6 -1.5 2.4 -4.3 3.9 -6.1 l2.7 -3.2 6.8 2.7 6.7 2.8 -0.6 4.5 c-0.4 2.5 -1.1 5.6 -1.6 7 -0.8 2.1 -0.6 2.7 1.4 4 1.2 0.8 4.2 3 6.6 4.8 l4.3 3.3 3.1 -2.6 c1.7 -1.4 4.4 -3.3 6 -4.1 3 -1.6 3.1 -1.6 7.9 3.2 2.7 2.7 4.9 5.4 4.9 6 0 0.7 -1.6 3.6 -3.5 6.4 -2 2.9 -3.4 5.6 -3.3 5.9 0.2 0.3 2.1 3.2 4.2 6.4 3.7 5.5 4.1 5.7 7 5 1.7 -0.4 5.1 -0.8 7.4 -0.8 l4.4 0 2.4 5.9 c2.3 5.7 2.3 6 0.7 7.9 -1 1 -3.7 3 -6.1 4.4 -2.7 1.6 -4.1 3.1 -3.8 3.9 0.3 0.8 1 4.3 1.7 7.8 l1.1 6.3 4.6 0.6 c2.6 0.3 5.9 1 7.5 1.6 2.6 1 2.7 1.3 2.7 8 l0 6.9 -3.2 1.1 c-1.8 0.6 -5.2 1.3 -7.5 1.7 l-4.1 0.6 -1.1 6.4 c-0.7 3.5 -1.4 6.9 -1.6 7.6 -0.3 0.8 1.3 2.3 3.9 3.7 2.5 1.3 5.2 3.2 6.2 4.2 1.6 1.7 1.5 2.2 -1.1 8.4 -3.1 7.2 -3.2 7.2 -11.5 5.1 -3 -0.8 -5.6 -1.3 -5.7 -1.2 -0.2 0.1 -2.1 3.1 -4.3 6.5 l-4.1 6.3 3.6 5.2 c1.9 2.8 3.5 5.8 3.5 6.7 0 2 -8.1 9.9 -10.2 9.9 -0.9 0 -3.9 -1.6 -6.7 -3.5 l-5.1 -3.5 -6.2 4.2 c-3.5 2.3 -6.4 4.2 -6.6 4.3 -0.1 0.1 0.1 1.3 0.6 2.6 0.5 1.3 1.2 4.5 1.6 7 l0.7 4.6 -6.6 2.8 -6.6 2.8 -2.3 -2.2 c-1.3 -1.2 -3.2 -4 -4.1 -6.2 -1.2 -2.5 -2.3 -3.8 -3.2 -3.5 -0.8 0.3 -4.2 1.1 -7.8 1.7 -6.2 1.2 -6.4 1.3 -7 4.8 -0.3 2 -1.1 5.3 -1.6 7.4 l-1 3.7 -7.3 0 -7.4 0 -1.1 -4.4z m-1.1 -50.8 l0 -20.3 -5.6 -2.9 c-6.1 -3.2 -11.7 -9.1 -13.6 -14.3 l-1.2 -3.3 -20.8 0 -20.7 0 0.6 3.3 c3.2 17.3 15 35.6 29.4 45.4 8.5 5.8 23.8 12.1 29.7 12.3 l2.2 0 0 -20.2z m29.6 18.1 c9.2 -2.8 15 -5.8 22.9 -11.4 13.3 -9.5 25 -27.7 28 -43.8 l0.7 -3.7 -20.6 0 -20.6 0 -2.4 4.8 c-2.8 5.5 -9.2 11.7 -14.2 13.8 l-3.4 1.4 0 20.5 c0 16.9 0.2 20.5 1.4 20.5 0.8 0 4.5 -1 8.2 -2.1z m-13.7 -57.7 c4 -2.1 7.1 -7.3 7.1 -11.7 0 -3.7 -3 -8.8 -6.5 -11.1 -1.7 -1.1 -2.5 -2.5 -2.5 -4.5 0 -2.7 -0.3 -2.9 -4 -2.9 -3.7 0 -4 0.2 -4 2.8 0 2 -0.9 3.3 -3.4 4.9 -8.6 5.5 -8.2 16.9 0.7 22.3 4 2.5 8.2 2.5 12.6 0.2z m-35.3 -24.8 c2.1 -5.1 9 -12.2 14.6 -15 l4.8 -2.4 0 -20.5 0 -20.5 -2.7 0.6 c-17 3.7 -29.9 10.7 -40.3 22 -9.6 10.3 -16.2 23 -18.4 35.7 l-0.7 3.7 20.6 0 20.6 0 1.5 -3.6z m100.4 2.4 c0 -0.7 -0.6 -3.5 -1.4 -6.3 -7.2 -26.7 -27.6 -46.9 -53.5 -52.9 l-6.1 -1.4 0 20.6 0.1 20.7 4.1 1.9 c5.3 2.5 11.8 9.1 14.2 14.5 l1.9 4.1 20.4 0 c15.6 0 20.3 -0.3 20.3 -1.2z"/>
  <path d="M1447 393.9 c-11.8 -1.4 -22.3 -4.4 -31.8 -9.1 -6.9 -3.4 -10.4 -6 -16.7 -12.3 -9.2 -9.2 -14.5 -17.7 -18.1 -29 -9 -28.5 -8.2 -62.1 2.3 -88.2 6.2 -15.6 20.2 -31.2 34.9 -39 27 -14.3 68.6 -14.8 96.4 -1.1 11.5 5.7 22.8 16.8 28.7 28.3 8.7 16.8 11.9 34.3 11 60.2 -0.6 20.7 -3.2 31.9 -10.7 46.8 -11 22 -30.2 36.4 -55.4 41.6 -10.9 2.3 -30.3 3.1 -40.6 1.8z m30.1 -39.9 c15.2 -4.6 23.2 -16.1 26.6 -38 1.8 -11.2 1.2 -29.2 -1.3 -40.3 -4.3 -19 -15.2 -29.9 -31.4 -31.6 -19.1 -1.9 -32.5 4.5 -39.8 19.1 -5 9.9 -6.4 16.7 -6.9 33.3 -0.4 12.4 -0.1 16.7 1.5 24.6 4 19.6 12.7 30.5 26.9 33.8 6.8 1.6 17.7 1.2 24.4 -0.9z"/>
  <path d="M1851.5 394.4 c-39.1 -3.7 -62.2 -20.2 -72.4 -51.4 -6.6 -20.5 -7.3 -51.8 -1.6 -74.7 1.5 -5.9 4.5 -14 7.7 -20.3 4.5 -9 6.5 -11.8 14.3 -19.6 7.6 -7.7 10.5 -9.8 18.5 -13.7 14.9 -7.4 31.5 -10.5 48.5 -9.2 36.7 2.7 60.3 20.9 68.5 53 1.1 4.4 2.6 13.9 3.2 21.2 1.8 22.3 -1 30.4 -11.3 32.4 -2.4 0.4 -27 0.8 -54.6 0.9 l-50.2 0 0.5 5.3 c2.1 19.9 9.8 31.2 25.1 37 5.1 1.9 7.8 2.2 21.8 2.2 17.7 0 24.3 -1.1 42 -7.1 11.6 -4 14.5 -4.2 17.1 -1.3 1.7 1.8 1.9 3.7 1.9 14.3 0 10.1 -0.4 12.6 -2 15.3 -3.1 5.3 -17.5 10.5 -37.5 13.8 -9.6 1.5 -32.1 2.6 -39.5 1.9z m40.5 -117.3 c0 -11.4 -5 -24.2 -11.8 -30.2 -5.6 -4.9 -12.2 -6.9 -22.6 -6.9 -6.8 0 -9 0.5 -14.1 2.8 -11.5 5.5 -18.2 16 -20.3 32 l-0.9 6.2 34.9 0 34.8 0 0 -3.9z"/>
  <path d="M2289.5 394.4 c-39.1 -3.7 -62.2 -20.2 -72.4 -51.4 -6.6 -20.5 -7.3 -51.8 -1.6 -74.7 1.5 -5.9 4.5 -14 7.7 -20.3 4.5 -9 6.5 -11.8 14.3 -19.6 7.6 -7.7 10.5 -9.8 18.5 -13.7 14.9 -7.4 31.5 -10.5 48.5 -9.2 36.7 2.7 60.3 20.9 68.5 53 1.1 4.4 2.6 13.9 3.2 21.2 1.8 22.3 -1 30.4 -11.3 32.4 -2.4 0.4 -27 0.8 -54.6 0.9 l-50.2 0 0.5 5.3 c2.1 19.9 9.8 31.2 25.1 37 5.1 1.9 7.8 2.2 21.8 2.2 17.7 0 24.3 -1.1 42 -7.1 11.6 -4 14.5 -4.2 17.1 -1.3 1.7 1.8 1.9 3.7 1.9 14.3 0 10.1 -0.4 12.6 -2 15.3 -3.1 5.3 -17.5 10.5 -37.5 13.8 -9.6 1.5 -32.1 2.6 -39.5 1.9z m40.5 -117.3 c0 -11.4 -5 -24.2 -11.8 -30.2 -5.6 -4.9 -12.2 -6.9 -22.6 -6.9 -6.8 0 -9 0.5 -14.1 2.8 -11.5 5.5 -18.2 16 -20.3 32 l-0.9 6.2 34.9 0 34.8 0 0 -3.9z"/>
  <path d="M2019.4 392.6 c-18.7 -4.3 -29.9 -15.4 -35.1 -34.8 -1.4 -5.4 -1.7 -13.5 -2 -57.5 l-0.4 -51.3 -10 0 c-5.5 0 -10.9 -0.5 -12.1 -1.1 -3.5 -1.9 -4.8 -7 -4.8 -18.9 0 -12.6 1.4 -17.4 5.5 -19 1.5 -0.6 6.9 -1 12.1 -1 l9.4 0 0 -19.4 0 -19.5 2.6 -2 c1.4 -1.1 4.2 -2.4 6.3 -2.8 5.8 -1.2 28.2 -0.8 32.3 0.6 6.5 2.2 6.8 3.3 6.8 24.3 l0 18.8 35.5 0 35.5 0 0 -23.8 c0 -17.5 0.3 -24.2 1.3 -25.4 2.3 -3 8.8 -4.2 22.2 -4.2 7.2 0 14.9 0.6 17.2 1.3 7.2 2 7.3 2.5 7.3 28.8 l0 23.3 17.4 0 c9.6 0 18.6 0.4 20 1 4.5 1.7 6 6.2 6 19 0 12.2 -1.3 16.8 -5.3 19 -1.2 0.6 -9.6 1 -20.1 1 l-18.1 0 0.3 45.3 0.3 45.2 2.5 5 c3.4 6.8 7.2 8.8 16.4 8.8 4.6 0 9.1 -0.8 12.9 -2.1 3.2 -1.2 6.4 -1.9 7.2 -1.6 2.4 1 3.9 7.6 3.9 17.9 0.1 16.5 -2.7 20.8 -15.6 24.1 -11.1 2.9 -33.8 2.7 -43.3 -0.3 -12.9 -4.1 -23.1 -13.4 -27.6 -25.3 -4.5 -11.9 -4.9 -17.3 -4.9 -68.6 l0 -48.4 -35.5 0 -35.5 0 0 42 c0 43.3 0.5 49.6 4.1 55.6 4.1 6.8 16.4 8.8 28.2 4.6 6.5 -2.4 8.4 -2.1 9.8 1.7 1.6 4.2 2.2 18.1 1 25.1 -1.3 7.9 -3.3 10 -12.9 13.1 -8.7 2.8 -31.5 3.6 -40.8 1.5z"/>
  <path d="M1063.6 391 c-4.1 -0.5 -8 -1.6 -9.5 -2.8 l-2.6 -1.9 0 -114.6 c0 -114.1 0 -114.6 2.1 -117.3 1.1 -1.5 3.3 -3.7 4.8 -4.8 2.6 -2 4.2 -2.1 39.9 -2.4 39.2 -0.3 50.1 0.3 64.7 3.9 27.4 6.8 45.9 23.9 52.7 48.9 2.7 9.9 2.4 35.6 -0.5 46.5 -8.2 30.3 -29.5 49.5 -63.3 57 -5 1.1 -14.5 1.8 -29.1 2.2 l-21.8 0.6 0 39.7 c0 44.2 0.4 41.9 -6.9 44 -4.8 1.4 -22.8 2 -30.5 1z m78.6 -126.8 c10.7 -4.3 18.7 -14 21.8 -26.5 0.7 -2.7 1.1 -9.1 0.8 -15.4 -0.4 -12.7 -2.9 -19.4 -9.8 -26.3 -7.7 -7.7 -16.7 -10 -39.7 -10 l-14.3 0 0 40.6 0 40.6 17.8 -0.4 c15.5 -0.3 18.4 -0.7 23.4 -2.6z"/>
  <path d="M1263.6 391 c-3.2 -0.5 -7 -1.7 -8.3 -2.5 l-2.3 -1.6 0.2 -87.2 0.3 -87.2 3.9 -1.9 c3.1 -1.5 6.2 -1.9 14.5 -2 12.7 -0.1 17.4 0.8 20.1 3.6 1.7 1.9 2 3.6 2 12.5 l0 10.4 6.1 -7.5 c14.6 -18.2 28.1 -24.6 45.5 -21.7 14.3 2.5 15.9 5.4 15.2 27.6 -0.7 20 -2.3 22.8 -11.5 19.9 -2.6 -0.8 -7 -1.9 -9.8 -2.3 -10.9 -1.9 -20.9 4 -31.9 18.6 l-6.6 8.8 0 52.8 c0 35.9 -0.3 53.5 -1.1 54.9 -0.6 1.1 -2.6 2.6 -4.4 3.4 -4.3 1.7 -24 2.6 -31.9 1.4z"/>
  <path d="M1701.5 391.1 c-6 -0.8 -10.3 -2.4 -11.7 -4.5 -0.4 -0.6 -0.8 -57.6 -0.8 -126.7 0 -118.4 0.1 -125.7 1.8 -127.1 3 -2.7 9.3 -3.8 22.2 -3.8 13.5 0 19 1 22.1 4.1 1.9 1.9 1.9 4.6 1.9 127.2 0 68.8 -0.4 125.7 -0.8 126.4 -2.3 3.7 -21.2 6.1 -34.7 4.4z"/>
  <path d="M1603.7 183.8 c-5 -1.3 -9.9 -6.3 -11.5 -11.5 -2.9 -9.6 -0.6 -26.7 4 -31 5.5 -5 8.6 -5.8 22.3 -5.8 15.7 0 20.5 1.7 24.6 8.8 2.1 3.7 2.4 5.4 2.4 15.2 0 9.5 -0.3 11.7 -2.3 15.7 -3.6 7.3 -8.5 9.2 -23.7 9.5 -6.6 0.1 -13.7 -0.3 -15.8 -0.9z"/>
 </g>
</svg>